<?xml version="1.0" encoding="UTF-8" standalone="no"?>
<!DOCTYPE svg PUBLIC "-//W3C//DTD SVG 1.1//EN"
 "http://www.w3.org/Graphics/SVG/1.1/DTD/svg11.dtd">
<!-- Generated by graphviz version 2.26.3 (20100126.1600)
 -->
<!-- Title: models_diagram Pages: 1 -->
<svg width="386pt" height="116pt"
 viewBox="0.00 0.00 386.00 116.00" xmlns="http://www.w3.org/2000/svg" xmlns:xlink="http://www.w3.org/1999/xlink">
<g id="graph1" class="graph" transform="scale(1 1) rotate(0) translate(4 112)">
<title>models_diagram</title>
<polygon fill="white" stroke="white" points="-4,5 -4,-112 383,-112 383,5 -4,5"/>
<!-- _diagram_info -->
<g id="node1" class="node"><title>_diagram_info</title>
<text text-anchor="start" x="7.5" y="-71.4" font-family="Times,serif" font-size="14.00">Models diagram</text>
<text text-anchor="start" x="7.5" y="-56.4" font-family="Times,serif" font-size="14.00">Date: Jun 23 2010 &#45; 04:42</text>
<text text-anchor="start" x="7.5" y="-41.4" font-family="Times,serif" font-size="14.00">Migration version: 20100614233220</text>
<text text-anchor="start" x="7.5" y="-26.4" font-family="Times,serif" font-size="14.00">Generated by RailRoad 0.5.0</text>
</g>
<!-- Task -->
<g id="node2" class="node"><title>Task</title>
<polyline fill="none" stroke="black" points="255.5,-1 366.5,-1 "/>
<path fill="none" stroke="black" d="M366.5,-1C372.5,-1 378.5,-7 378.5,-13"/>
<polyline fill="none" stroke="black" points="378.5,-13 378.5,-95 "/>
<path fill="none" stroke="black" d="M378.5,-95C378.5,-101 372.5,-107 366.5,-107"/>
<polyline fill="none" stroke="black" points="366.5,-107 255.5,-107 "/>
<path fill="none" stroke="black" d="M255.5,-107C249.5,-107 243.5,-101 243.5,-95"/>
<polyline fill="none" stroke="black" points="243.5,-95 243.5,-13 "/>
<path fill="none" stroke="black" d="M243.5,-13C243.5,-7 249.5,-1 255.5,-1"/>
<text text-anchor="middle" x="311" y="-90.4" font-family="Times,serif" font-size="14.00">Task</text>
<polyline fill="none" stroke="black" points="243.5,-84 378.5,-84 "/>
<text text-anchor="start" x="251.5" y="-67.4" font-family="Times,serif" font-size="14.00">description :string</text>
<text text-anchor="start" x="251.5" y="-52.4" font-family="Times,serif" font-size="14.00">isDone :boolean</text>
<text text-anchor="start" x="251.5" y="-37.4" font-family="Times,serif" font-size="14.00">order :integer</text>
<text text-anchor="start" x="251.5" y="-22.4" font-family="Times,serif" font-size="14.00">created_at :datetime</text>
<text text-anchor="start" x="251.5" y="-7.4" font-family="Times,serif" font-size="14.00">updated_at :datetime</text>
</g>
</g>
</svg>
